<?xml version="1.0" encoding="UTF-8"?>
<!DOCTYPE svg PUBLIC "-//W3C//DTD SVG 1.1//EN" "http://www.w3.org/Graphics/SVG/1.1/DTD/svg11.dtd">
<!-- Creator: CorelDRAW -->
<svg xmlns="http://www.w3.org/2000/svg" xml:space="preserve" width="100%" height="100%" version="1.1" style="shape-rendering:geometricPrecision; text-rendering:geometricPrecision; image-rendering:optimizeQuality; fill-rule:evenodd; clip-rule:evenodd"
viewBox="0 0 4575.19 1325.96"
 xmlns:xlink="http://www.w3.org/1999/xlink"
 xmlns:xodm="http://www.corel.com/coreldraw/odm/2003">
 <defs>
  <style type="text/css">
   <![CDATA[
    .fil9 {fill:#068ABC}
    .fil8 {fill:#39ADAC}
    .fil10 {fill:white}
    .fil5 {fill:#068ABC;fill-rule:nonzero}
    .fil4 {fill:#39ADAC;fill-rule:nonzero}
    .fil6 {fill:#666666;fill-rule:nonzero}
    .fil7 {fill:#B3B3B3;fill-rule:nonzero}
    .fil1 {fill:white;fill-rule:nonzero}
    .fil2 {fill:black;fill-rule:nonzero;fill-opacity:0.180392}
    .fil0 {fill:black;fill-rule:nonzero;fill-opacity:0.270588}
    .fil3 {fill:black;fill-rule:nonzero;fill-opacity:0.419608}
   ]]>
  </style>
 </defs>
 <g id="Layer_x0020_1">
  <metadata id="CorelCorpID_0Corel-Layer"/>
  <path class="fil0" d="M3926.49 28.57c179.13,0 341.31,72.61 458.7,190 117.39,117.39 190,279.57 190,458.7 0,179.13 -72.61,341.3 -190,458.69 -117.39,117.39 -279.57,190 -458.7,190 -179.12,0 -341.3,-72.61 -458.69,-190 -117.39,-117.39 -190,-279.56 -190,-458.69 0,-179.13 72.61,-341.31 190,-458.7 117.39,-117.39 279.57,-190 458.69,-190z"/>
  <path class="fil0" d="M3910.17 0c179.13,0 341.3,72.61 458.7,190 117.39,117.39 189.99,279.57 189.99,458.69 0,179.13 -72.6,341.31 -189.99,458.7 -117.4,117.39 -279.57,190 -458.7,190 -179.12,0 -341.31,-72.61 -458.7,-190 -117.38,-117.39 -190,-279.57 -190,-458.7 0,-179.12 72.62,-341.3 190,-458.69 117.39,-117.39 279.58,-190 458.7,-190z"/>
  <path class="fil1" d="M4351.92 206.94c-113.04,-113.04 -269.23,-182.98 -441.75,-182.98 -172.51,0 -328.71,69.94 -441.76,182.98 -113.03,113.04 -182.97,269.24 -182.97,441.75 0,172.53 69.94,328.72 182.97,441.76 113.05,113.05 269.25,182.98 441.76,182.98 172.52,0 328.7,-69.93 441.75,-182.98 113.06,-113.05 182.98,-269.23 182.98,-441.76 0,-172.51 -69.92,-328.7 -182.98,-441.75z"/>
  <path class="fil2" d="M3036.15 895.16c12.16,25.75 13.64,52.58 7.01,77.32 -7.23,27.01 -24.2,51.51 -47.37,69.33l0.26 0.39 -8.37 5.53c-30.67,20.24 -61.63,26.31 -89.61,22.31 -23.42,-3.35 -44.66,-13.79 -61.81,-28.87 -17.08,-15.02 -30.17,-34.72 -37.4,-56.66 -8.24,-25.03 -8.93,-53.07 0.7,-80.55l-9.04 -3.36 -5.39 1.28c-37.87,8.37 -179.76,39.58 -293.94,-59.93 -19.39,25.62 -44.22,47.55 -74.95,61 -25.35,11.1 -54.58,16.37 -87.88,13.14 10.12,38.68 -1.54,74.99 -24.61,102.78 -12.35,14.87 -28,27.28 -45.3,36.22 -17.33,8.95 -36.41,14.49 -55.59,15.62 -34.84,2.05 -69.85,-10.27 -95.45,-42.63l-0.16 0.28 -270.85 0 73.14 -126.46c-29.25,-9.78 -55.88,-23.95 -79.37,-41.66 -23.39,-17.65 -43.7,-38.77 -60.44,-62.57 -85.4,125.68 -217.81,123.01 -364.1,120.07 -19.55,-0.39 -39.43,-0.79 -61.6,-0.85l-61.42 106.66 -270.34 0 61.71 -107.24c-12.33,0.18 -24.69,-0.83 -36.87,-3.05 -16.39,-3 -32.43,-8.22 -47.62,-15.67 -25.6,12.45 -53.53,18.69 -81.46,18.73 -28.15,0.04 -56.34,-6.24 -82.18,-18.81 -65.2,23.08 -131.87,24.22 -191.32,2.69 -57.75,-20.92 -108.56,-63.18 -144.43,-127.4 -9.61,-17.21 -17.51,-35.38 -23.55,-54.05 -4.45,-13.73 -7.9,-27.76 -10.32,-41.91 -53.89,32.83 -110.67,45.43 -164.8,42.12 -56.56,-3.47 -110.22,-24.33 -154.62,-57.6 -44.41,-33.27 -79.63,-78.98 -99.34,-132.12 -20.77,-56.07 -24.37,-120.4 -3.44,-187.18 19.51,-62.27 57.47,-110.93 104.95,-144.38 36.84,-25.95 79.49,-42.77 123.74,-49.69 44.23,-6.92 90.06,-3.95 133.27,9.59 54.54,17.09 105,51 143.05,103.1l354.73 3.37 -8.73 14.84c-8.06,13.7 -21.4,35.17 -37.79,61.56 -58.73,94.56 -156.37,251.75 -159.14,283.9 -0.85,9.84 1.13,19.57 5.36,28.09 3.64,7.35 8.96,13.85 15.57,18.79l3.48 2.18c2.24,1.4 4.71,2.68 7.32,3.78l0.97 0.41 117.43 -203.91 614.2 3.09 79.29 -138.45 6.71 0.98c53.6,7.79 98.71,18.49 137.65,38.67 35.6,18.46 65.83,44.68 92.31,83.55 20.65,-29.18 45.79,-53.26 73.78,-72.02 46.57,-31.23 101.11,-47.79 156.06,-48.88 54.99,-1.09 110.47,13.27 158.92,43.85 28.83,18.19 55.21,42.14 77.5,71.96l52.72 -92.03 26.22 23.78c41.85,37.63 74.74,67.2 99,121.54 12.25,-19.63 25.28,-38.77 39.11,-56.46 17.6,-22.51 36.63,-42.86 57.18,-59.18l133.56 -227.09 5.04 -0.49c92.86,-9.16 178.87,10 249.24,53.27 64.25,39.51 115.46,99.08 146.99,175.47l17.64 -30.53 21.02 19.33c61.43,56.43 107.17,98.44 124.39,191.75 12.58,68.13 -0.17,137.26 -32.67,195.33 -30.32,54.15 -77.83,98.74 -137.95,124.03z"/>
  <path class="fil3" d="M3016.15 875.16c12.16,25.75 13.64,52.58 7.01,77.32 -7.23,27.01 -24.2,51.51 -47.37,69.33l0.26 0.39 -8.37 5.53c-30.67,20.24 -61.63,26.31 -89.61,22.31 -23.42,-3.35 -44.66,-13.79 -61.81,-28.87 -17.08,-15.02 -30.17,-34.72 -37.4,-56.66 -8.24,-25.03 -8.93,-53.07 0.7,-80.55l-9.04 -3.36 -5.39 1.28c-37.87,8.37 -179.76,39.58 -293.94,-59.93 -19.39,25.62 -44.22,47.55 -74.95,61 -25.35,11.1 -54.58,16.37 -87.88,13.14 10.12,38.68 -1.54,74.99 -24.61,102.78 -12.35,14.87 -28,27.28 -45.3,36.22 -17.33,8.95 -36.41,14.49 -55.59,15.62 -34.84,2.05 -69.85,-10.27 -95.45,-42.63l-0.16 0.28 -270.85 0 73.14 -126.46c-29.25,-9.78 -55.88,-23.95 -79.37,-41.66 -23.39,-17.65 -43.7,-38.77 -60.44,-62.57 -85.4,125.68 -217.81,123.01 -364.1,120.07 -19.55,-0.39 -39.43,-0.79 -61.6,-0.85l-61.42 106.66 -270.34 0 61.71 -107.24c-12.33,0.18 -24.69,-0.83 -36.87,-3.05 -16.39,-3 -32.43,-8.22 -47.62,-15.67 -25.6,12.45 -53.53,18.69 -81.46,18.73 -28.15,0.04 -56.34,-6.24 -82.18,-18.81 -65.2,23.08 -131.87,24.22 -191.32,2.69 -57.75,-20.92 -108.56,-63.18 -144.43,-127.4 -9.61,-17.21 -17.51,-35.38 -23.55,-54.05 -4.45,-13.73 -7.9,-27.76 -10.32,-41.91 -53.89,32.83 -110.67,45.43 -164.8,42.12 -56.56,-3.47 -110.22,-24.33 -154.62,-57.6 -44.41,-33.27 -79.63,-78.98 -99.34,-132.12 -20.77,-56.07 -24.37,-120.4 -3.44,-187.18 19.51,-62.27 57.47,-110.93 104.95,-144.38 36.84,-25.95 79.49,-42.77 123.74,-49.69 44.23,-6.92 90.06,-3.95 133.27,9.59 54.54,17.09 105,51 143.05,103.1l354.73 3.37 -8.73 14.84c-8.06,13.7 -21.4,35.17 -37.79,61.56 -58.73,94.56 -156.37,251.75 -159.14,283.9 -0.85,9.84 1.13,19.57 5.36,28.09 3.64,7.35 8.96,13.85 15.57,18.79l3.48 2.18c2.24,1.4 4.71,2.68 7.32,3.78l0.97 0.41 117.43 -203.91 614.2 3.09 79.29 -138.45 6.71 0.98c53.6,7.79 98.71,18.49 137.65,38.67 35.6,18.46 65.83,44.68 92.31,83.55 20.65,-29.18 45.79,-53.26 73.78,-72.02 46.57,-31.23 101.11,-47.79 156.06,-48.88 54.99,-1.09 110.47,13.27 158.92,43.85 28.83,18.19 55.21,42.14 77.5,71.96l52.72 -92.03 26.22 23.78c41.85,37.63 74.74,67.2 99,121.54 12.25,-19.63 25.28,-38.77 39.11,-56.46 17.6,-22.51 36.63,-42.86 57.18,-59.18l133.56 -227.09 5.04 -0.49c92.86,-9.16 178.87,10 249.24,53.27 64.25,39.51 115.46,99.08 146.99,175.47l17.64 -30.53 21.02 19.33c61.43,56.43 107.17,98.44 124.39,191.75 12.58,68.13 -0.17,137.26 -32.67,195.33 -30.32,54.15 -77.83,98.74 -137.95,124.03z"/>
  <path class="fil4" d="M2943.34 880.05c71.81,71.68 -65.75,160.04 -102.73,68.86 -25.56,-63.02 53.51,-119.39 102.73,-68.86zm-1842.6 60.58l242.18 -420.94 126.01 0 -242.36 420.94 -125.83 0zm-812.35 -305.51c-243.61,0 -313.15,-333.68 -87.77,-430.67 96.81,-41.66 211.96,-7.92 271.49,78.46l-69.14 119.94c-12.54,-147.72 -230.44,-137.75 -230.44,8.47 0,119.75 154.77,152.35 209.41,67.45l100.9 -175.26 125.45 0 -152.97 256.96c-42.65,47.42 -102.62,74.65 -166.93,74.65zm-41.49 -265.71c68.73,-68.86 164.23,59.62 69.14,102.73 -61.22,27.75 -118.03,-53.84 -69.14,-102.73zm391.36 -62.64l125.87 0 -140.26 238.2c-48.54,77.56 2.37,171.59 87.2,178.93l0.01 0.7 27.65 -7.34 115.57 -200.66 125.17 0c-22.26,39.03 -110.98,179.14 -106.4,198.41 2.02,8.48 20.72,15.73 29.07,2.25l116.28 -200.66 125.87 0 -106.26 183.31 -0.85 0c0,0.15 -7.43,32.04 20.46,23.7l122.49 -206.3 127 0 -167.22 279.82c-45.63,45.63 -121.59,49.6 -170.04,5.51 -46.68,41.29 -117.02,41.18 -163.4,0.7 -25.35,22.39 -59.16,32.77 -93.14,29.68l0 0.1c-177.56,0 -265.47,-195.22 -192.9,-327.24l117.83 -199.11zm708.85 527.19l63.22 -109.36c82.66,0 187.03,19.26 215.45,-85.09 24.62,-90.41 -62.45,-166.98 -145.06,-140.55l64.34 -112.32c245.22,35.65 258.77,382.33 26.96,440.27 -47.39,11.84 -169.62,7.05 -224.91,7.05zm637.17 -340.5c-152.61,0 -155.41,236.55 7.33,231.64 143.67,-4.33 145.37,-231.64 -7.33,-231.64zm130.53 341.21l-63.64 110.77 -125.87 0 64.06 -110.77c-253.99,0 -316.71,-336.37 -92.99,-433.5 162.23,-70.44 345.11,71.81 308.75,254.71l-20.32 55.72c61.74,-33.75 78.31,-112.31 41.16,-168.47l57.01 -99.48c78.06,71.21 94.76,188.59 42.62,279.8 37.48,-14.89 112.53,-246.31 218.02,-311.41 126.98,-78.36 296.27,-12.01 334.71,134.06 23.16,-161.12 -145.08,-283.35 -294.22,-210.26l76.2 -129.54c230.61,-22.82 449.83,266.27 253.16,518.58 69.59,0 142.92,-94.72 85.54,-181.47l57.43 -99.34c137.11,126.66 67.94,354.05 -111.48,387.21l-1.55 2.26c-49.57,2.87 -125.47,6.83 -166.63,-19.78 -115.16,39.24 -250.75,13.77 -313.03,-99.88 -33.12,56.56 -59.35,119.66 -142.1,119.66 -29.9,0 -57.11,-11.52 -78.66,-31.3 -45.5,25.49 -78.69,32.32 -128.17,32.43zm113.1 45.38c71.77,71.77 -65.77,159.99 -102.73,68.86 -25.54,-62.97 53.41,-119.4 102.73,-68.86zm432.82 -391.1c-151.94,0 -152.54,231.98 0,231.98 152.92,0 152.33,-231.98 0,-231.98z"/>
  <path class="fil1" d="M3002.12 870.01c32.53,54.86 8.7,117.08 -40.01,149.31l0.06 0.09c-106.28,70.15 -213.91,-42.81 -169.34,-141.78 -7.15,-2.03 -14.11,-4.41 -20.82,-7.18 -8.8,-0.54 -176.22,55.36 -302.4,-63.37 -35.77,52.18 -93.13,91.35 -175.8,76.97 49.13,118.81 -135.26,222.73 -207.2,105.46l-5.09 8.85 -247.81 0 70.73 -122.29c-66.73,-19.11 -120.17,-61.2 -154.83,-116.63 -94.27,154.1 -256.83,127.44 -431.3,127.44l-61.42 106.67 -247.38 0 62.37 -108.4c-34.93,4.04 -70.67,-2.03 -102.38,-18.75 -50.95,26.54 -112.04,26.6 -163.02,0.26 -125.44,46.24 -256.61,8.48 -327.67,-118.7 -18.63,-33.35 -30.53,-70.29 -34.91,-107.89 -220.32,149.44 -498.87,-64.5 -420.34,-315.04 67.03,-213.85 359.08,-260.7 490.32,-74.44l342.57 3.26c-33.96,57.69 -194.48,305.4 -198.3,349.64 -2.03,23.48 9.51,46.31 29.01,58.54l0.09 -0.14c5.42,3.39 11.52,6 18.18,7.63l118.55 -205.84 614.25 3.09 78.8 -137.58c105.16,15.3 176.4,41.65 231.25,130.46 104.63,-165.81 351.92,-176.75 467.28,-4.69l54.3 -94.77c53.84,49.12 94.09,79.47 120.97,151.56 29.91,-50.24 64.8,-99.03 105.7,-131l131.94 -224.32c180.24,-17.78 333.61,73.57 393.42,241.91l21.88 -37.85c65.99,60.95 115.5,101.28 133.2,197.11 24.13,130.62 -48.24,265.06 -174.85,312.41z"/>
  <path class="fil4" d="M2943.34 880.05c71.81,71.68 -65.75,160.04 -102.73,68.86 -25.56,-63.02 53.51,-119.39 102.73,-68.86zm-1596.23 -46.09l63.22 -109.36c82.66,0 187.03,19.26 215.45,-85.09 24.62,-90.41 -62.45,-166.98 -145.06,-140.55l64.34 -112.32c245.22,35.65 258.77,382.33 26.96,440.27 -47.39,11.84 -169.62,7.05 -224.91,7.05zm637.17 -340.5c-152.61,0 -155.41,236.55 7.33,231.64 143.67,-4.33 145.37,-231.64 -7.33,-231.64zm130.53 341.21l-63.64 110.77 -125.87 0 64.06 -110.77c-253.99,0 -316.71,-336.37 -92.99,-433.5 162.23,-70.44 345.11,71.81 308.75,254.71l-20.32 55.72c61.74,-33.75 78.31,-112.31 41.16,-168.47l57.01 -99.48c78.06,71.21 94.76,188.59 42.62,279.8 37.48,-14.89 112.53,-246.31 218.02,-311.41 126.98,-78.36 296.27,-12.01 334.71,134.06 23.16,-161.12 -145.08,-283.35 -294.22,-210.26l76.2 -129.54c230.61,-22.82 449.83,266.27 253.16,518.58 69.59,0 142.92,-94.72 85.54,-181.47l57.43 -99.34c137.11,126.66 67.94,354.05 -111.48,387.21l-1.55 2.26c-49.57,2.87 -125.47,6.83 -166.63,-19.78 -115.16,39.24 -250.75,13.77 -313.03,-99.88 -33.12,56.56 -59.35,119.66 -142.1,119.66 -29.9,0 -57.11,-11.52 -78.66,-31.3 -45.5,25.49 -78.69,32.32 -128.17,32.43zm113.1 45.38c71.77,71.77 -65.77,159.99 -102.73,68.86 -25.54,-62.97 53.41,-119.4 102.73,-68.86zm432.82 -391.1c-151.94,0 -152.54,231.98 0,231.98 152.92,0 152.33,-231.98 0,-231.98z"/>
  <path class="fil5" d="M1100.74 940.63l242.18 -420.94 126.01 0 -242.36 420.94 -125.83 0zm-812.35 -305.51c-243.61,0 -313.15,-333.68 -87.77,-430.67 96.81,-41.66 211.96,-7.92 271.49,78.46l-69.14 119.94c-12.54,-147.72 -230.44,-137.75 -230.44,8.47 0,119.75 154.77,152.35 209.41,67.45l100.9 -175.26 125.45 0 -152.97 256.96c-42.65,47.42 -102.62,74.65 -166.93,74.65zm-41.49 -265.71c68.73,-68.86 164.23,59.62 69.14,102.73 -61.22,27.75 -118.03,-53.84 -69.14,-102.73zm391.36 -62.64l125.87 0 -140.26 238.2c-48.54,77.56 2.37,171.59 87.2,178.93l0.01 0.7 27.65 -7.34 115.57 -200.66 125.17 0c-22.26,39.03 -110.98,179.14 -106.4,198.41 2.02,8.48 20.72,15.73 29.07,2.25l116.28 -200.66 125.87 0 -106.26 183.31 -0.85 0c0,0.15 -7.43,32.04 20.46,23.7l122.49 -206.3 127 0 -167.22 279.82c-45.63,45.63 -121.59,49.6 -170.04,5.51 -46.68,41.29 -117.02,41.18 -163.4,0.7 -25.35,22.39 -59.16,32.77 -93.14,29.68l0 0.1c-177.56,0 -265.47,-195.22 -192.9,-327.24l117.83 -199.11z"/>
  <g id="_105553189279520">
   <path class="fil6" d="M108.55 1293.53l-79.13 0 0 -174.61 84.79 0c21.43,0.29 36.6,6.51 45.49,18.61 5.38,7.4 8.09,16.29 8.09,26.64 0,10.64 -2.71,19.21 -8.09,25.72 -2.99,3.6 -7.4,6.92 -13.26,9.95 8.94,3.23 15.65,8.37 20.22,15.36 4.53,7.04 6.79,15.57 6.79,25.6 0,10.35 -2.59,19.65 -7.8,27.86 -3.32,5.46 -7.48,10.03 -12.46,13.75 -5.58,4.25 -12.21,7.16 -19.85,8.73 -7.6,1.58 -15.89,2.39 -24.79,2.39zm-0.85 -76.87l-43.47 0 0 46.54 42.91 0c7.64,0 13.58,-1.01 17.87,-3.07 7.72,-3.8 11.6,-11.08 11.6,-21.8 0,-9.09 -3.76,-15.32 -11.24,-18.72 -4.2,-1.9 -10.07,-2.87 -17.67,-2.95zm18.12 -33.32c4.77,-2.83 7.11,-7.93 7.11,-15.28 0,-8.13 -3.15,-13.51 -9.46,-16.1 -5.46,-1.82 -12.41,-2.71 -20.86,-2.71l-38.38 0 0 38.5 42.91 0c7.64,0 13.87,-1.46 18.68,-4.41zm186 72.26c-0.85,7.68 -4.85,15.45 -11.97,23.37 -11.03,12.54 -26.52,18.81 -46.42,18.81 -16.45,0 -30.93,-5.26 -43.47,-15.86 -12.57,-10.59 -18.84,-27.82 -18.84,-51.63 0,-22.36 5.66,-39.51 16.98,-51.44 11.33,-11.93 26.04,-17.87 44.12,-17.87 10.76,0 20.42,1.98 29.03,6.02 8.62,4.05 15.73,10.4 21.35,19.09 5.06,7.64 8.33,16.54 9.83,26.65 0.85,5.9 1.21,14.43 1.05,25.59l-88.35 0c0.44,12.94 4.53,22.04 12.17,27.26 4.69,3.23 10.27,4.85 16.82,4.85 6.96,0 12.62,-1.98 16.94,-5.94 2.39,-2.15 4.49,-5.1 6.31,-8.9l34.45 0zm-33.4 -39.55c-0.56,-8.93 -3.27,-15.69 -8.12,-20.3 -4.86,-4.65 -10.88,-6.95 -18.08,-6.95 -7.8,0 -13.87,2.47 -18.16,7.36 -4.32,4.89 -7.03,11.52 -8.12,19.89l52.48 0zm174.49 1.66l0 75.82 -34.45 0 0 -78.53c0,-6.95 -1.17,-12.57 -3.56,-16.82 -3.07,-6.02 -8.94,-9.02 -17.55,-9.02 -8.9,0 -15.69,3 -20.3,8.94 -4.61,5.98 -6.91,14.48 -6.91,25.52l0 69.91 -33.65 0 0 -174.04 33.65 0 0 61.75c4.89,-7.52 10.55,-12.74 16.98,-15.73 6.43,-2.95 13.22,-4.41 20.3,-4.41 8.01,0 15.24,1.37 21.75,4.12 6.51,2.79 11.85,7 16.06,12.7 3.56,4.81 5.74,9.75 6.51,14.84 0.81,5.1 1.17,13.43 1.17,24.95zm101.66 79.26c-10.68,0 -19.25,-2.15 -25.72,-6.39 -3.84,-2.55 -8.05,-6.96 -12.54,-13.27l0 16.22 -33.07 0 0 -174.4 33.64 0 0 62.11c4.29,-6.03 8.98,-10.6 14.11,-13.75 6.07,-3.96 13.83,-5.95 23.21,-5.95 16.99,0 30.29,6.15 39.87,18.36 9.59,12.26 14.4,28.07 14.4,47.39 0,20.06 -4.73,36.72 -14.23,49.9 -9.47,13.19 -22.69,19.78 -39.67,19.78zm18.48 -66.12c0,-9.14 -1.18,-16.74 -3.56,-22.72 -4.49,-11.41 -12.78,-17.07 -24.87,-17.07 -12.25,0 -20.66,5.58 -25.23,16.7 -2.39,5.91 -3.56,13.59 -3.56,22.97 0,11.08 2.47,20.22 7.36,27.5 4.89,7.28 12.33,10.88 22.36,10.88 8.69,0 15.45,-3.48 20.26,-10.52 4.81,-7.03 7.24,-16.29 7.24,-27.74zm167.28 -50.1c10.88,13.67 16.34,29.8 16.34,48.45 0,18.96 -5.46,35.18 -16.34,48.64 -10.91,13.47 -27.45,20.18 -49.65,20.18 -22.2,0 -38.74,-6.71 -49.62,-20.18 -10.92,-13.46 -16.38,-29.68 -16.38,-48.64 0,-18.65 5.46,-34.78 16.38,-48.45 10.88,-13.67 27.42,-20.5 49.62,-20.5 22.2,0 38.74,6.83 49.65,20.5zm-49.77 8.05c-9.87,0 -17.47,3.52 -22.81,10.47 -5.34,7 -7.97,16.99 -7.97,29.93 0,12.93 2.63,22.96 7.97,29.96 5.34,7.03 12.94,10.55 22.81,10.55 9.86,0 17.46,-3.52 22.76,-10.55 5.3,-7 7.93,-17.03 7.93,-29.96 0,-12.94 -2.63,-22.93 -7.93,-29.93 -5.3,-6.95 -12.9,-10.47 -22.76,-10.47zm207.8 -69.67l0 174.4 -32.84 0 0 -17.87c-4.81,7.64 -10.31,13.22 -16.45,16.7 -6.15,3.47 -13.83,5.21 -22.97,5.21 -15.08,0 -27.78,-6.1 -38.09,-18.31 -10.31,-12.22 -15.45,-27.87 -15.45,-46.99 0,-22.04 5.06,-39.35 15.2,-52 10.15,-12.62 23.7,-18.97 40.68,-18.97 7.85,0 14.8,1.74 20.87,5.18 6.07,3.44 11,8.21 14.8,14.27l0 -61.62 34.25 0zm-90.98 110.67c0,11.93 2.34,21.43 7.11,28.55 4.65,7.2 11.77,10.76 21.31,10.76 9.55,0 16.83,-3.52 21.8,-10.64 4.97,-7.12 7.48,-16.34 7.48,-27.62 0,-15.77 -4,-27.09 -11.97,-33.88 -4.89,-4.09 -10.59,-6.15 -17.06,-6.15 -9.87,0 -17.11,3.72 -21.76,11.2 -4.61,7.44 -6.91,16.7 -6.91,27.78zm265.95 -4.73l-37.69 0 0 68.46 -35.62 0 0 -174.61 85.64 0c12.22,0.21 21.64,1.74 28.23,4.49 6.63,2.75 12.21,6.84 16.78,12.21 3.8,4.41 6.79,9.31 9.02,14.68 2.18,5.38 3.31,11.49 3.31,18.36 0,8.29 -2.1,16.46 -6.31,24.47 -4.16,8 -11.07,13.66 -20.7,16.98 8.05,3.27 13.75,7.84 17.11,13.83 3.35,5.94 5.05,15.04 5.05,27.29l0 11.73c0,7.97 0.28,13.38 0.93,16.26 0.93,4.48 3.15,7.8 6.63,9.94l0 4.37 -40.15 0c-1.09,-3.88 -1.9,-7 -2.39,-9.34 -0.93,-4.93 -1.45,-9.95 -1.53,-15.08l-0.25 -16.22c-0.16,-11.12 -2.18,-18.56 -6.1,-22.28 -3.88,-3.68 -11.2,-5.54 -21.96,-5.54zm22.16 -31.78c7.28,-3.32 10.88,-9.87 10.88,-19.65 0,-10.6 -3.52,-17.68 -10.52,-21.31 -3.96,-2.07 -9.86,-3.08 -17.79,-3.08l-42.42 0 0 46.91 41.37 0c8.21,0 14.36,-0.97 18.48,-2.87zm186.69 62.31c-0.85,7.68 -4.85,15.45 -11.97,23.37 -11.03,12.54 -26.52,18.81 -46.42,18.81 -16.45,0 -30.93,-5.26 -43.47,-15.86 -12.57,-10.59 -18.84,-27.82 -18.84,-51.63 0,-22.36 5.66,-39.51 16.98,-51.44 11.33,-11.93 26.04,-17.87 44.12,-17.87 10.76,0 20.42,1.98 29.03,6.02 8.62,4.05 15.73,10.4 21.35,19.09 5.06,7.64 8.33,16.54 9.83,26.65 0.85,5.9 1.21,14.43 1.05,25.59l-88.35 0c0.44,12.94 4.53,22.04 12.17,27.26 4.69,3.23 10.27,4.85 16.82,4.85 6.96,0 12.62,-1.98 16.94,-5.94 2.39,-2.15 4.49,-5.1 6.31,-8.9l34.45 0zm-33.4 -39.55c-0.56,-8.93 -3.27,-15.69 -8.12,-20.3 -4.86,-4.65 -10.88,-6.95 -18.08,-6.95 -7.8,0 -13.87,2.47 -18.16,7.36 -4.32,4.89 -7.03,11.52 -8.12,19.89l52.48 0zm146.79 -45.73c10.11,6.47 15.89,17.63 17.43,33.4l-33.77 0c-0.48,-4.33 -1.69,-7.76 -3.68,-10.31 -3.72,-4.57 -10.02,-6.88 -18.96,-6.88 -7.36,0 -12.58,1.18 -15.69,3.44 -3.11,2.31 -4.69,4.98 -4.69,8.09 0,3.84 1.66,6.67 4.97,8.41 3.32,1.82 15.05,4.93 35.18,9.34 13.43,3.15 23.5,7.93 30.21,14.36 6.63,6.47 9.95,14.55 9.95,24.26 0,12.82 -4.73,23.25 -14.28,31.34 -9.5,8.08 -24.22,12.13 -44.11,12.13 -20.3,0 -35.26,-4.29 -44.97,-12.82 -9.66,-8.57 -14.52,-19.49 -14.52,-32.8l34.25 0c0.73,6.03 2.27,10.28 4.61,12.82 4.21,4.49 11.93,6.76 23.25,6.76 6.64,0 11.89,-1.01 15.82,-2.96 3.88,-1.98 5.86,-4.93 5.86,-8.89 0,-3.8 -1.58,-6.67 -4.77,-8.66 -3.16,-1.98 -14.88,-5.37 -35.18,-10.19 -14.6,-3.63 -24.91,-8.16 -30.9,-13.62 -6.02,-5.38 -9.01,-13.1 -9.01,-23.21 0,-11.93 4.69,-22.16 14.03,-30.74 9.38,-8.57 22.52,-12.85 39.5,-12.85 16.14,0 29.28,3.19 39.47,9.58zm50.83 8.05c8.9,-11.37 24.22,-17.07 45.94,-17.07 14.15,0 26.73,2.83 37.69,8.41 10.99,5.62 16.45,16.22 16.45,31.79l0 59.2c0,4.12 0.08,9.09 0.25,14.96 0.24,4.4 0.93,7.4 2.02,8.97 1.09,1.58 2.75,2.92 4.97,3.93l0 4.97 -36.71 0c-1.06,-2.59 -1.74,-5.05 -2.15,-7.36 -0.4,-2.26 -0.69,-4.89 -0.93,-7.8 -4.69,5.05 -10.03,9.34 -16.13,12.9 -7.24,4.2 -15.49,6.3 -24.63,6.3 -11.68,0 -21.35,-3.35 -28.95,-10.02 -7.64,-6.68 -11.44,-16.14 -11.44,-28.39 0,-15.85 6.1,-27.34 18.35,-34.45 6.72,-3.89 16.58,-6.63 29.6,-8.29l11.53 -1.42c6.23,-0.81 10.67,-1.78 13.38,-2.99 4.81,-2.02 7.2,-5.26 7.2,-9.58 0,-5.3 -1.82,-8.94 -5.5,-10.96 -3.68,-2.02 -9.06,-3.03 -16.17,-3.03 -7.97,0 -13.63,1.98 -16.95,5.94 -2.34,2.91 -3.92,6.87 -4.73,11.85l-32.59 0c0.73,-11.28 3.88,-20.59 9.5,-27.86zm25.11 90.74c3.16,2.62 7.04,3.92 11.61,3.92 7.28,0 13.95,-2.14 20.1,-6.39 6.1,-4.29 9.3,-12.05 9.5,-23.33l0 -12.58c-2.1,1.34 -4.29,2.43 -6.43,3.28 -2.18,0.81 -5.18,1.57 -8.94,2.3l-7.6 1.42c-7.12,1.25 -12.21,2.79 -15.28,4.61 -5.22,3.11 -7.81,7.88 -7.81,14.35 0,5.74 1.62,9.91 4.85,12.42zm165.76 -79.7c-11.49,0 -19.33,4.85 -23.58,14.55 -2.22,5.14 -3.31,11.69 -3.31,19.66l0 69.91 -33.65 0 0 -128.91 32.55 0 0 18.84c4.37,-6.63 8.46,-11.4 12.34,-14.31 6.95,-5.22 15.77,-7.85 26.4,-7.85 13.35,0 24.26,3.52 32.76,10.52 8.49,6.99 12.73,18.56 12.73,34.77l0 86.94 -34.57 0 0 -78.53c0,-6.79 -0.93,-12.01 -2.75,-15.65 -3.31,-6.63 -9.62,-9.94 -18.92,-9.94z"/>
   <path class="fil7" d="M1794.2 1119.49l33.77 0 50.02 147.15 49.61 -147.15 33.4 0 0 174.04 -22.36 0 0 -102.71c0,-3.56 0.08,-9.42 0.25,-17.67 0.12,-8.21 0.2,-16.98 0.2,-26.41l-49.62 146.79 -23.33 0 -50.02 -146.79 0 5.34c0,4.25 0.12,10.76 0.32,19.49 0.21,8.74 0.29,15.13 0.29,19.25l0 102.71 -22.53 0 0 -174.04zm977.4 -4.73c22,0 39.1,5.82 51.28,17.43 12.17,11.6 18.92,24.79 20.25,39.54l-22.96 0c-2.63,-11.2 -7.81,-20.09 -15.61,-26.64 -7.77,-6.55 -18.68,-9.83 -32.76,-9.83 -17.1,0 -30.97,6.03 -41.48,18.08 -10.56,12.05 -15.86,30.49 -15.86,55.35 0,20.38 4.78,36.92 14.28,49.58 9.54,12.7 23.74,19.04 42.62,19.04 17.35,0 30.57,-6.67 39.67,-20.01 4.81,-7.04 8.41,-16.3 10.79,-27.74l22.97 0c-2.06,18.32 -8.85,33.68 -20.38,46.1 -13.83,14.92 -32.47,22.36 -55.92,22.36 -20.22,0 -37.2,-6.11 -50.91,-18.36 -18.12,-16.17 -27.13,-41.16 -27.13,-74.97 0,-25.68 6.79,-46.74 20.38,-63.16 14.67,-17.83 34.93,-26.77 60.77,-26.77zm115.37 145.01c0,6.14 2.26,10.99 6.75,14.55 4.49,3.56 9.82,5.34 16.01,5.34 7.48,0 14.76,-1.74 21.8,-5.22 11.84,-5.74 17.75,-15.2 17.75,-28.3l0 -17.19c-2.59,1.66 -5.95,3.08 -10.07,4.17 -4.12,1.09 -8.13,1.9 -12.09,2.34l-12.9 1.66c-7.76,1.05 -13.55,2.67 -17.43,4.89 -6.55,3.68 -9.82,9.63 -9.82,17.76zm51.63 -43.11c4.9,-0.65 8.21,-2.71 9.87,-6.19 0.93,-1.9 1.41,-4.61 1.41,-8.17 0,-7.27 -2.58,-12.53 -7.76,-15.81 -5.17,-3.27 -12.57,-4.93 -22.24,-4.93 -11.12,0 -19,3.03 -23.65,9.02 -2.63,3.31 -4.33,8.25 -5.1,14.8l-19.93 0c0.4,-15.61 5.49,-26.49 15.24,-32.63 9.74,-6.11 21.07,-9.18 33.93,-9.18 14.92,0 27.05,2.83 36.39,8.53 9.22,5.7 13.83,14.52 13.83,26.53l0 73.1c0,2.23 0.48,4.01 1.37,5.34 0.93,1.34 2.83,2.02 5.75,2.02 0.97,0 2.02,-0.08 3.19,-0.2 1.21,-0.12 2.47,-0.28 3.8,-0.52l0 15.77c-3.31,0.93 -5.86,1.53 -7.56,1.78 -1.74,0.2 -4.13,0.32 -7.12,0.32 -7.36,0 -12.69,-2.59 -16.01,-7.81 -1.74,-2.74 -2.95,-6.67 -3.68,-11.72 -4.33,5.7 -10.55,10.63 -18.68,14.8 -8.17,4.2 -17.11,6.27 -26.93,6.27 -11.77,0 -21.35,-3.56 -28.83,-10.72 -7.44,-7.12 -11.21,-16.09 -11.21,-26.81 0,-11.77 3.68,-20.91 11.04,-27.37 7.32,-6.47 16.99,-10.48 28.92,-11.97l33.96 -4.25zm67.54 -50.02l20.25 0 0 21.92c1.66,-4.25 5.75,-9.47 12.22,-15.57 6.47,-6.11 13.95,-9.18 22.4,-9.18 0.4,0 1.05,0.04 2.02,0.12 0.93,0.08 2.55,0.24 4.85,0.49l0 22.48c-1.29,-0.24 -2.42,-0.37 -3.52,-0.45 -1.05,-0.08 -2.22,-0.12 -3.47,-0.12 -10.76,0 -19.01,3.44 -24.75,10.35 -5.78,6.92 -8.65,14.88 -8.65,23.86l0 72.99 -21.35 0 0 -126.89zm133.03 -2.83c9.02,0 17.75,2.1 26.2,6.35 8.45,4.2 14.88,9.66 19.29,16.37 4.29,6.43 7.12,13.87 8.53,22.41 1.3,5.86 1.9,15.16 1.9,27.98l-93 0c0.4,12.86 3.44,23.17 9.14,30.97 5.7,7.77 14.47,11.65 26.4,11.65 11.16,0 20.02,-3.68 26.65,-11 3.8,-4.29 6.51,-9.22 8.09,-14.8l20.94 0c-0.52,4.65 -2.38,9.83 -5.5,15.57 -3.11,5.7 -6.63,10.39 -10.47,14.03 -6.47,6.31 -14.52,10.59 -24.06,12.78 -5.13,1.29 -10.96,1.9 -17.43,1.9 -15.77,0 -29.15,-5.74 -40.15,-17.23 -10.96,-11.48 -16.46,-27.58 -16.46,-48.28 0,-20.38 5.54,-36.92 16.58,-49.61 11.08,-12.74 25.52,-19.09 43.35,-19.09zm34.01 56.17c-0.85,-9.26 -2.87,-16.62 -6.03,-22.16 -5.86,-10.27 -15.61,-15.41 -29.27,-15.41 -9.79,0 -18,3.52 -24.63,10.59 -6.63,7.08 -10.15,16.06 -10.55,26.98l70.48 0zm-1126.29 -56.17c9.02,0 17.75,2.1 26.2,6.35 8.45,4.2 14.88,9.66 19.29,16.37 4.29,6.43 7.12,13.87 8.53,22.41 1.3,5.86 1.9,15.16 1.9,27.98l-93 0c0.4,12.86 3.44,23.17 9.14,30.97 5.7,7.77 14.47,11.65 26.4,11.65 11.16,0 20.02,-3.68 26.65,-11 3.8,-4.29 6.51,-9.22 8.09,-14.8l20.94 0c-0.52,4.65 -2.38,9.83 -5.5,15.57 -3.11,5.7 -6.63,10.39 -10.47,14.03 -6.47,6.31 -14.52,10.59 -24.06,12.78 -5.13,1.29 -10.96,1.9 -17.43,1.9 -15.77,0 -29.15,-5.74 -40.15,-17.23 -10.96,-11.48 -16.46,-27.58 -16.46,-48.28 0,-20.38 5.54,-36.92 16.58,-49.61 11.08,-12.74 25.52,-19.09 43.35,-19.09zm34.01 56.17c-0.85,-9.26 -2.87,-16.62 -6.03,-22.16 -5.86,-10.27 -15.61,-15.41 -29.27,-15.41 -9.79,0 -18,3.52 -24.63,10.59 -6.63,7.08 -10.15,16.06 -10.55,26.98l70.48 0zm61.62 11.6c0,13.59 2.88,24.95 8.66,34.13 5.74,9.14 15,13.71 27.7,13.71 9.86,0 17.99,-4.25 24.34,-12.74 6.35,-8.49 9.54,-20.66 9.54,-36.51 0,-16.06 -3.27,-27.91 -9.82,-35.63 -6.55,-7.68 -14.64,-11.52 -24.31,-11.52 -10.71,0 -19.45,4.08 -26.12,12.29 -6.67,8.21 -9.99,20.3 -9.99,36.27zm32.11 -67.16c9.71,0 17.83,2.02 24.38,6.14 3.81,2.39 8.09,6.51 12.94,12.46l0 -64.1 20.47 0 0 174.61 -19.17 0 0 -17.67c-4.98,7.84 -10.88,13.46 -17.67,16.94 -6.8,3.48 -14.56,5.22 -23.33,5.22 -14.16,0 -26.37,-5.95 -36.72,-17.83 -10.35,-11.89 -15.53,-27.7 -15.53,-47.44 0,-18.48 4.73,-34.49 14.15,-48.04 9.47,-13.54 22.93,-20.29 40.48,-20.29zm89.33 2.83l21.67 0 0 126.28 -21.67 0 0 -126.28zm0 -47.76l21.67 0 0 24.18 -21.67 0 0 -24.18zm102.83 43.47c14.27,0 25.92,3.48 34.85,10.43 8.98,6.96 14.36,18.93 16.18,35.91l-20.71 0c-1.29,-7.8 -4.16,-14.31 -8.65,-19.49 -4.53,-5.18 -11.73,-7.76 -21.67,-7.76 -13.59,0 -23.29,6.63 -29.16,19.89 -3.8,8.61 -5.7,19.25 -5.7,31.87 0,12.73 2.71,23.45 8.09,32.1 5.34,8.7 13.79,13.06 25.35,13.06 8.82,0 15.85,-2.71 21.03,-8.12 5.13,-5.42 8.73,-12.82 10.71,-22.2l20.71 0c-2.35,16.82 -8.29,29.11 -17.75,36.87 -9.47,7.81 -21.6,11.69 -36.36,11.69 -16.62,0 -29.84,-6.07 -39.7,-18.2 -9.87,-12.13 -14.8,-27.25 -14.8,-45.41 0,-22.28 5.41,-39.63 16.21,-52.04 10.84,-12.37 24.63,-18.6 41.37,-18.6zm88.72 96.81c0,6.14 2.26,10.99 6.75,14.55 4.49,3.56 9.82,5.34 16.01,5.34 7.48,0 14.76,-1.74 21.8,-5.22 11.84,-5.74 17.75,-15.2 17.75,-28.3l0 -17.19c-2.59,1.66 -5.95,3.08 -10.07,4.17 -4.12,1.09 -8.13,1.9 -12.09,2.34l-12.9 1.66c-7.76,1.05 -13.55,2.67 -17.43,4.89 -6.55,3.68 -9.82,9.63 -9.82,17.76zm51.63 -43.11c4.9,-0.65 8.21,-2.71 9.87,-6.19 0.93,-1.9 1.41,-4.61 1.41,-8.17 0,-7.27 -2.58,-12.53 -7.76,-15.81 -5.17,-3.27 -12.57,-4.93 -22.24,-4.93 -11.12,0 -19,3.03 -23.65,9.02 -2.63,3.31 -4.33,8.25 -5.1,14.8l-19.93 0c0.4,-15.61 5.49,-26.49 15.24,-32.63 9.74,-6.11 21.07,-9.18 33.93,-9.18 14.92,0 27.05,2.83 36.39,8.53 9.22,5.7 13.83,14.52 13.83,26.53l0 73.1c0,2.23 0.48,4.01 1.37,5.34 0.93,1.34 2.83,2.02 5.75,2.02 0.97,0 2.02,-0.08 3.19,-0.2 1.21,-0.12 2.47,-0.28 3.8,-0.52l0 15.77c-3.31,0.93 -5.86,1.53 -7.56,1.78 -1.74,0.2 -4.13,0.32 -7.12,0.32 -7.36,0 -12.69,-2.59 -16.01,-7.81 -1.74,-2.74 -2.95,-6.67 -3.68,-11.72 -4.33,5.7 -10.55,10.63 -18.68,14.8 -8.17,4.2 -17.11,6.27 -26.93,6.27 -11.77,0 -21.35,-3.56 -28.83,-10.72 -7.44,-7.12 -11.21,-16.09 -11.21,-26.81 0,-11.77 3.68,-20.91 11.04,-27.37 7.32,-6.47 16.99,-10.48 28.92,-11.97l33.96 -4.25zm67.54 -97.17l21.35 0 0 174.04 -21.35 0 0 -174.04z"/>
  </g>
  <path class="fil8" d="M3518.4 219.25c115.25,10.73 194.16,47.5 248.6,137.47 58.94,97.39 123.44,464.31 145.66,502.74 20.27,-37.13 87.56,-403.16 143.54,-500.36 18.63,-32.36 33.65,-45.14 58.63,-69.62 47.26,-46.29 107.75,-60.28 191.69,-70.52 -231.52,-211.72 -588.53,-199.14 -788.12,0.29z"/>
  <path class="fil9" d="M4199.37 415.84c-13.4,30.77 -35.27,160.01 -46.14,205.17 -33.6,139.57 -73.19,264.27 -106.85,398.37 -20.12,80.16 -41.86,123.14 -133.69,123.15 -92.26,0.01 -110.76,-39.82 -132.7,-119.43 -44.47,-161.29 -98.41,-340.56 -131.6,-503.09 -5.07,-24.83 -14.76,-85.8 -22.6,-104.29 -11.84,72.74 -9.32,199.38 -12.97,279 -3.52,76.6 -16.6,200.54 -8.24,272.5 41.07,353.77 574.3,353.92 615.83,-0.25 8.37,-71.42 -4.81,-196.44 -8.42,-272.22 -3.87,-81.45 -0.85,-203.03 -12.62,-278.91z"/>
  <path class="fil9" d="M4335.96 1051.92c7.31,-10.51 17.52,-16.81 27.75,-30.51 77.13,-103.4 119.21,-182.83 131.94,-326.34 13.3,-149.9 -32.4,-281.99 -117.56,-398.92 -8.61,21.32 18.85,340.9 21.72,394 6.71,123.86 -6.91,270.04 -63.85,361.77z"/>
  <path class="fil9" d="M3486.13 1048.1c-55.5,-113.51 -68.05,-225.23 -61.02,-357.94 2.81,-52.91 30.48,-374.85 21.9,-392.92 -77.15,93.72 -127.14,239.64 -118.36,390.14 8.09,138.75 69.11,268.81 157.48,360.72z"/>
  <path class="fil10" d="M3883.83 137.59c-141.16,40.39 -90.75,248.06 51.56,220.33 148.28,-28.9 96.98,-262.85 -51.56,-220.33z"/>
 </g>
</svg>
